<mxfile host="65bd71144e">
    <diagram id="UCdQVVdEs8AUddfKZKoE" name="Page-1">
        <mxGraphModel dx="1374" dy="762" grid="1" gridSize="10" guides="1" tooltips="1" connect="1" arrows="1" fold="1" page="1" pageScale="1" pageWidth="850" pageHeight="1100" math="0" shadow="0">
            <root>
                <mxCell id="0"/>
                <mxCell id="1" parent="0"/>
                <mxCell id="21" value="" style="group" vertex="1" connectable="0" parent="1">
                    <mxGeometry x="39.999999999999986" y="49.999999999999986" width="251.88" height="252.5" as="geometry"/>
                </mxCell>
                <mxCell id="3" value="" style="rounded=0;whiteSpace=wrap;html=1;rotation=90;" vertex="1" parent="21">
                    <mxGeometry x="-0.30999999999998806" y="0.31000000000001293" width="252.5" height="251.88" as="geometry"/>
                </mxCell>
                <mxCell id="4" value="" style="whiteSpace=wrap;html=1;aspect=fixed;" vertex="1" parent="21">
                    <mxGeometry x="10.000000000000014" y="10.000000000000014" width="50" height="50" as="geometry"/>
                </mxCell>
                <mxCell id="5" value="" style="whiteSpace=wrap;html=1;aspect=fixed;fillColor=#1ba1e2;fontColor=#ffffff;strokeColor=#006EAF;" vertex="1" parent="21">
                    <mxGeometry x="70.00000000000001" y="10.000000000000014" width="50" height="50" as="geometry"/>
                </mxCell>
                <mxCell id="6" value="" style="whiteSpace=wrap;html=1;aspect=fixed;" vertex="1" parent="21">
                    <mxGeometry x="130" y="10.000000000000014" width="50" height="50" as="geometry"/>
                </mxCell>
                <mxCell id="7" value="" style="whiteSpace=wrap;html=1;aspect=fixed;" vertex="1" parent="21">
                    <mxGeometry x="10.000000000000014" y="70.00000000000001" width="50" height="50" as="geometry"/>
                </mxCell>
                <mxCell id="8" value="" style="whiteSpace=wrap;html=1;aspect=fixed;fillColor=#1ba1e2;fontColor=#ffffff;strokeColor=#006EAF;" vertex="1" parent="21">
                    <mxGeometry x="70.00000000000001" y="70.00000000000001" width="50" height="50" as="geometry"/>
                </mxCell>
                <mxCell id="9" value="" style="whiteSpace=wrap;html=1;aspect=fixed;fillColor=#1ba1e2;fontColor=#ffffff;strokeColor=#006EAF;" vertex="1" parent="21">
                    <mxGeometry x="130" y="70.00000000000001" width="50" height="50" as="geometry"/>
                </mxCell>
                <mxCell id="10" value="" style="whiteSpace=wrap;html=1;aspect=fixed;fillColor=#1ba1e2;fontColor=#ffffff;strokeColor=#006EAF;" vertex="1" parent="21">
                    <mxGeometry x="10.000000000000014" y="130" width="50" height="50" as="geometry"/>
                </mxCell>
                <mxCell id="11" value="" style="whiteSpace=wrap;html=1;aspect=fixed;" vertex="1" parent="21">
                    <mxGeometry x="70.00000000000001" y="130" width="50" height="50" as="geometry"/>
                </mxCell>
                <mxCell id="12" value="" style="whiteSpace=wrap;html=1;aspect=fixed;" vertex="1" parent="21">
                    <mxGeometry x="130" y="130" width="50" height="50" as="geometry"/>
                </mxCell>
                <mxCell id="14" value="" style="whiteSpace=wrap;html=1;aspect=fixed;" vertex="1" parent="21">
                    <mxGeometry x="10.000000000000014" y="190" width="50" height="50" as="geometry"/>
                </mxCell>
                <mxCell id="15" value="" style="whiteSpace=wrap;html=1;aspect=fixed;" vertex="1" parent="21">
                    <mxGeometry x="70.00000000000001" y="190" width="50" height="50" as="geometry"/>
                </mxCell>
                <mxCell id="16" value="" style="whiteSpace=wrap;html=1;aspect=fixed;" vertex="1" parent="21">
                    <mxGeometry x="130" y="190" width="50" height="50" as="geometry"/>
                </mxCell>
                <mxCell id="17" value="" style="whiteSpace=wrap;html=1;aspect=fixed;" vertex="1" parent="21">
                    <mxGeometry x="190" y="11.250000000000014" width="50" height="50" as="geometry"/>
                </mxCell>
                <mxCell id="18" value="" style="whiteSpace=wrap;html=1;aspect=fixed;" vertex="1" parent="21">
                    <mxGeometry x="190" y="71.25000000000001" width="50" height="50" as="geometry"/>
                </mxCell>
                <mxCell id="19" value="" style="whiteSpace=wrap;html=1;aspect=fixed;" vertex="1" parent="21">
                    <mxGeometry x="190" y="131.25" width="50" height="50" as="geometry"/>
                </mxCell>
                <mxCell id="20" value="" style="whiteSpace=wrap;html=1;aspect=fixed;fillColor=#1ba1e2;fontColor=#ffffff;strokeColor=#006EAF;" vertex="1" parent="21">
                    <mxGeometry x="190" y="191.25" width="50" height="50" as="geometry"/>
                </mxCell>
                <mxCell id="22" value="Lights Out Game" style="text;strokeColor=none;fillColor=none;html=1;fontSize=24;fontStyle=1;verticalAlign=middle;align=center;" vertex="1" parent="1">
                    <mxGeometry x="115.94" y="10" width="100" height="40" as="geometry"/>
                </mxCell>
                <mxCell id="28" style="edgeStyle=none;html=1;exitX=0.5;exitY=0;exitDx=0;exitDy=0;entryX=0;entryY=0.5;entryDx=0;entryDy=0;" edge="1" parent="1" source="3" target="30">
                    <mxGeometry relative="1" as="geometry"/>
                </mxCell>
                <mxCell id="31" value="" style="group" vertex="1" connectable="0" parent="1">
                    <mxGeometry x="460" y="90" width="211.09" height="190" as="geometry"/>
                </mxCell>
                <mxCell id="23" value="Grid.js&lt;br&gt;&lt;br&gt;" style="rounded=0;whiteSpace=wrap;html=1;horizontal=1;verticalAlign=top;" vertex="1" parent="31">
                    <mxGeometry width="211.09" height="190" as="geometry"/>
                </mxCell>
                <mxCell id="30" value="&lt;ul&gt;&lt;li&gt;Props -&amp;gt; x, y&lt;/li&gt;&lt;li&gt;State -&amp;gt; squareOn&lt;/li&gt;&lt;li&gt;handleClick&lt;/li&gt;&lt;li&gt;GenerateGrid&lt;/li&gt;&lt;/ul&gt;" style="text;strokeColor=none;fillColor=none;html=1;whiteSpace=wrap;verticalAlign=middle;overflow=hidden;align=left;" vertex="1" parent="31">
                    <mxGeometry x="-0.39" y="21.113750000000003" width="210" height="168.88625000000002" as="geometry"/>
                </mxCell>
                <mxCell id="32" value="" style="group" vertex="1" connectable="0" parent="1">
                    <mxGeometry x="460" y="320" width="211.09" height="90" as="geometry"/>
                </mxCell>
                <mxCell id="33" value="Square.js" style="rounded=0;whiteSpace=wrap;html=1;horizontal=1;verticalAlign=top;" vertex="1" parent="32">
                    <mxGeometry width="211.09" height="80" as="geometry"/>
                </mxCell>
                <mxCell id="34" value="&lt;ul&gt;&lt;li&gt;Props -&amp;gt; on, off&lt;/li&gt;&lt;li&gt;ShowSquare&lt;/li&gt;&lt;/ul&gt;" style="text;strokeColor=none;fillColor=none;html=1;whiteSpace=wrap;verticalAlign=middle;overflow=hidden;align=left;" vertex="1" parent="32">
                    <mxGeometry x="1.0900000000000034" y="10" width="210" height="50.00000000000001" as="geometry"/>
                </mxCell>
                <mxCell id="35" style="edgeStyle=none;html=1;exitX=0.5;exitY=1;exitDx=0;exitDy=0;entryX=0.5;entryY=0;entryDx=0;entryDy=0;" edge="1" parent="1" source="30" target="33">
                    <mxGeometry relative="1" as="geometry"/>
                </mxCell>
                <mxCell id="37" value="" style="group" vertex="1" connectable="0" parent="1">
                    <mxGeometry x="115.94000000000005" y="360" width="211.09" height="90" as="geometry"/>
                </mxCell>
                <mxCell id="38" value="helpers.js" style="rounded=0;whiteSpace=wrap;html=1;horizontal=1;verticalAlign=top;" vertex="1" parent="37">
                    <mxGeometry width="211.09" height="80" as="geometry"/>
                </mxCell>
                <mxCell id="39" value="&lt;ul&gt;&lt;li&gt;random()&lt;/li&gt;&lt;/ul&gt;" style="text;strokeColor=none;fillColor=none;html=1;whiteSpace=wrap;verticalAlign=middle;overflow=hidden;align=left;" vertex="1" parent="37">
                    <mxGeometry x="1.0900000000000034" y="10" width="210" height="50" as="geometry"/>
                </mxCell>
                <mxCell id="40" style="edgeStyle=none;html=1;exitX=1;exitY=0;exitDx=0;exitDy=0;entryX=0;entryY=1;entryDx=0;entryDy=0;" edge="1" parent="1" source="38" target="30">
                    <mxGeometry relative="1" as="geometry"/>
                </mxCell>
            </root>
        </mxGraphModel>
    </diagram>
</mxfile>